<svg xmlns="http://www.w3.org/2000/svg" width="418" height="600" viewBox="0 0 418 600">
  <rect width="418" height="600" fill="#f5e4d0"/>
  <circle cx="209" cy="200" r="120" fill="rgba(242,200,75,.15)"/>
  <text x="209" y="320" text-anchor="middle" font-family="Georgia, serif" font-size="22" fill="#841412" font-style="italic">Die süsseste</text>
  <text x="209" y="352" text-anchor="middle" font-family="Georgia, serif" font-size="22" fill="#841412" font-style="italic">Einladung des</text>
  <text x="209" y="384" text-anchor="middle" font-family="Georgia, serif" font-size="22" fill="#841412" font-style="italic">Sommers</text>
  <text x="209" y="420" text-anchor="middle" font-family="Georgia, serif" font-size="14" fill="#9e1a1a">18. Juli 2026</text>
  <!-- placeholder strawberry -->
  <g transform="translate(209,200) scale(1.5)">
    <ellipse cx="0" cy="0" rx="18" ry="24" fill="#db4129"/>
    <ellipse cx="0" cy="0" rx="18" ry="24" fill="url(#sgrad)"/>
    <path d="M0,-24 Q-12,-36 0,-40 Q12,-36 0,-24" fill="#5c7d3a"/>
    <circle cx="-6" cy="-4" r="1.2" fill="#f6ead0"/>
    <circle cx="6" cy="-4" r="1.2" fill="#f6ead0"/>
    <circle cx="0" cy="2" r="1.2" fill="#f6ead0"/>
    <circle cx="-8" cy="6" r="1.2" fill="#f6ead0"/>
    <circle cx="8" cy="6" r="1.2" fill="#f6ead0"/>
    <circle cx="-3" cy="10" r="1.2" fill="#f6ead0"/>
    <circle cx="3" cy="10" r="1.2" fill="#f6ead0"/>
    <circle cx="0" cy="16" r="1.2" fill="#f6ead0"/>
  </g>
  <defs>
    <radialGradient id="sgrad" cx="30%" cy="30%">
      <stop offset="0%" stop-color="rgba(255,225,200,.3)"/>
      <stop offset="100%" stop-color="transparent"/>
    </radialGradient>
  </defs>
</svg>